<svg xmlns="http://www.w3.org/2000/svg" width="400" height="400"><rect width="400" height="400" rx="76.19" fill="#fef3c7"/><path d="M292.663 232.896a15 15 0 0 0-14.557 23.585c8.78 12.166 17.367 24.114 23.489 34.333s9.119 19.148 9.176 21.474.69 1.09-1.336 1.941-7.621 1.463-14.683-1.026c-14.123-4.979-36.715-24.356-59.04-44.926a15.001 15.001 0 0 0-20.33 22.064c22.326 20.57 44.387 42.339 69.397 51.156 12.505 4.409 25.107 5.082 36.282.384s20.022-17.097 19.702-30.325-6.294-24.245-13.435-36.164-16.119-24.3-24.899-36.467a15 15 0 0 0-9.766-6.031zm-104.97 32.268c-24.329 5.839-51.14 11.727-72.844 29.83s-33.81 44.367-45.65 68.696a15.002 15.002 0 0 0 26.981 13.125c11.84-24.329 23.418-46.724 37.884-58.789s36.306-17.857 60.635-23.696a15 15 0 0 0 11.088-18.086 15 15 0 0 0-18.093-11.08z" fill="#bb4d00"/><g fill="#d97706"><path d="M126.147 400a75 150 0 0 1 75-150 75 150 0 0 1 75 150h-75z"/><ellipse cx="145.155" cy="171.342" rx="90" ry="100"/></g><rect width="250" height="200" x="94.845" y="71.342" rx="50" fill="#f59e0b"/><g fill="#fff"><rect width="50" height="100" x="163.866" y="109.936" rx="25"/><rect width="50" height="100" x="248.907" y="109.936" rx="25"/></g><path d="M292.663 232.896a15 15 0 0 0-11.169 2.643c-6.719 4.847-8.236 14.224-3.388 20.942 8.78 12.166 17.367 24.114 23.489 34.333s9.119 19.148 9.176 21.474.69 1.09-1.336 1.941-7.621 1.463-14.683-1.026c-10.133 11.729-8.627 10.134-9.973 28.295 12.505 4.409 25.107 5.082 36.282.384s20.022-17.097 19.702-30.325-6.294-24.245-13.435-36.164-16.119-24.3-24.899-36.467a15 15 0 0 0-9.766-6.031z" fill="#bb4d00"/></svg>
