<?xml version="1.0" encoding="UTF-8" standalone="no"?>
<svg
   viewBox="0 0 24 24"
   fill="currentColor"
   version="1.1"
   id="svg1"
   width="24"
   height="24"
   xmlns="http://www.w3.org/2000/svg"
   xmlns:svg="http://www.w3.org/2000/svg">
  <defs
     id="defs1" />
  <path
     id="path2"
     style="color:#000000;fill:#4f46e5;fill-opacity:1;stroke-width:1;stroke-linecap:round;stroke-linejoin:round;-inkscape-stroke:none"
     d="M 4.9634964,5.8027164 C 4.6803377,5.8058634 4.3992936,5.8137258 4.1221752,5.8252117 3.0137024,5.8711549 1.9644275,5.9669316 1.0583267,5.9669316 0.6199683,5.967508 0.251526,6.2963017 0.201259,6.7317689 c 0,0 -0.1115129,0.9537306 -0.1664647,2.1347961 -0.054951,1.181065 -0.076684,2.565597 0.1844609,3.650974 0.3194338,1.327643 0.8874081,2.740299 1.9615829,3.797192 0.9267891,0.911878 2.1447527,1.405519 3.3135454,1.642151 1.6112701,0.326214 3.4683912,0.413014 5.1266595,-0.317183 0.619881,-0.272951 1.018498,-0.72755 1.378957,-1.13151 0.36046,0.40396 0.759077,0.858559 1.378958,1.13151 1.658268,0.730197 3.515389,0.643397 5.12666,0.317183 1.168792,-0.236632 2.386754,-0.730273 3.313545,-1.642151 1.074174,-1.056893 1.642148,-2.469549 1.961583,-3.797192 0.261142,-1.085377 0.239412,-2.469909 0.18446,-3.650974 -0.05495,-1.1810655 -0.166464,-2.134796 -0.166464,-2.1347961 -0.05027,-0.4354675 -0.418709,-0.7642612 -0.857068,-0.7648373 -1.812201,0 -4.198723,-0.381308 -6.480872,0.011253 C 15.513623,6.1411029 14.358396,6.5631838 13.385706,6.9454738 12.611421,7.2497812 12.230893,7.4255848 12,7.5280999 11.769108,7.4255845 11.38858,7.2497858 10.614295,6.9454735 9.6416037,6.5631835 8.4863777,6.1411026 7.5391987,5.9781792 6.6833929,5.8309727 5.8129721,5.7932757 4.9634964,5.8027164 Z m 1.5836632,4.2628426 c 0.4259568,0.0011 0.8775017,0.05799 1.3384654,0.170965 0.7375397,0.180764 1.3687597,0.467563 1.8446077,0.859317 0.237924,0.195877 0.4425943,0.419597 0.5803773,0.708599 0.137784,0.288997 0.190851,0.676208 0.06523,1.023533 -0.251234,0.694647 -0.9021193,0.940714 -1.5251763,1.048276 -0.6230519,0.107551 -1.336512,0.06829 -2.074054,-0.11248 C 6.039069,13.583011 5.4078511,13.296212 4.932003,12.904456 4.6940793,12.708578 4.4894065,12.484854 4.3516265,12.195857 4.2138457,11.906859 4.1607741,11.51965 4.2863904,11.172325 4.5376225,10.477677 5.1885093,10.23161 5.811566,10.124048 c 0.2336464,-0.04034 0.4800195,-0.05917 0.7355936,-0.05849 z m 10.7032244,0.02475 c 0.348806,-0.0083 0.682231,0.01805 0.992039,0.08098 0.619616,0.12588 1.263036,0.389268 1.493683,1.091019 0.115323,0.350876 0.05176,0.736472 -0.09448,1.021283 -0.14624,0.28481 -0.357027,0.501826 -0.600623,0.690603 -0.487189,0.377555 -1.126802,0.646387 -1.869352,0.805329 -0.742551,0.158942 -1.456693,0.175368 -2.076309,0.04949 -0.619615,-0.12588 -1.263036,-0.389268 -1.493682,-1.091019 -0.115324,-0.350876 -0.05176,-0.736472 0.09448,-1.021283 0.14624,-0.284809 0.359276,-0.501825 0.602872,-0.690603 0.48719,-0.377555 1.124553,-0.646386 1.867103,-0.805329 0.371275,-0.07947 0.735464,-0.122232 1.084269,-0.130472 z" />
</svg>
